<svg width="31" height="35" viewBox="0 0 31 35" fill="none" xmlns="http://www.w3.org/2000/svg">
<path d="M19.8981 6.64641C20.832 5.76332 21.5212 4.79608 21.9659 3.74432C22.3957 2.69255 22.6107 1.73932 22.6107 0.883535C22.6107 0.827841 22.6069 0.756934 22.5995 0.67317C22.5917 0.589405 22.5884 0.519708 22.5884 0.462804C22.5736 0.420731 22.5551 0.343586 22.5328 0.230988C22.5106 0.119218 22.4921 0.0420731 22.4773 0C19.8685 0.574957 18.0159 1.61272 16.9192 3.11322C15.8074 4.62741 15.2293 6.42942 15.1848 8.51888C16.1775 8.43435 16.9483 8.31596 17.4972 8.16167C18.2976 7.90854 19.0976 7.40404 19.8981 6.64641Z" fill="white"/>
<path d="M27.4573 22.9058C26.4345 21.5183 25.9231 19.9547 25.9231 18.215C25.9231 16.6307 26.4045 15.1797 27.3683 13.8611C27.8871 13.1463 28.732 12.3189 29.903 11.3789C29.1322 10.4818 28.3614 9.781 27.5907 9.27536C26.1973 8.36497 24.6187 7.90808 22.8552 7.90808C21.8028 7.90808 20.5207 8.14728 19.0088 8.62371C17.5561 9.1009 16.4963 9.3385 15.8297 9.3385C15.3258 9.3385 14.303 9.12814 12.7614 8.70747C11.2051 8.28674 9.89371 8.07637 8.82642 8.07637C6.27694 8.07637 4.17216 9.08607 2.51242 11.1058C0.837472 13.1533 0 15.7752 0 18.9722C0 22.3656 1.08943 25.8921 3.26841 29.5526C5.4766 33.1844 7.70733 35 9.96039 35C10.7163 35 11.6942 34.7616 12.8948 34.2852C14.0955 33.8224 15.1474 33.5911 16.0516 33.5911C17.0151 33.5911 18.1338 33.8155 19.4089 34.2638C20.7574 34.7125 21.795 34.9365 22.5213 34.9365C24.4181 34.9365 26.3229 33.5626 28.235 30.8144C29.4801 29.0618 30.3917 27.3085 30.9698 25.5559C29.6507 25.1777 28.48 24.2942 27.4573 22.9058Z" fill="white"/>
</svg>
